<svg width="154" height="268" viewBox="0 0 154 268" fill="none" xmlns="http://www.w3.org/2000/svg">
<path d="M29.7988 255.566L29.7988 227.799C29.7988 224.939 31.0421 222.397 32.9857 220.617H25.5347C20.1908 220.617 15.8386 224.968 15.8386 230.368L15.8386 258.134C15.8386 263.532 20.1908 267.885 25.5347 267.885H109.99C112.502 267.885 114.775 266.898 116.499 265.319H39.4956C34.1509 265.319 29.7988 260.966 29.7988 255.566Z" fill="white"/>
<path d="M127.973 33.3811C128.255 32.2661 128.722 31.2554 129.313 30.3515C128.763 29.9581 128.257 29.5101 127.62 29.2287C126.298 28.6765 124.975 28.4003 123.653 28.4003C119.246 28.4003 115.169 31.3752 114.012 35.9496L109.483 54.3278L109.848 106.93L127.973 33.3811" fill="#FFCC99"/>
<path d="M144.831 99.9881C145.071 99.5895 145.392 99.2925 145.67 98.9382C143.967 97.8962 142.061 97.3205 140.125 97.3205C138.515 97.3205 136.922 97.7295 135.446 98.4381L130.507 123.623L144.831 99.9881" fill="#FFCC99"/>
<path d="M50.3479 31.2893C50.3479 31.0132 50.2929 30.7371 50.2929 30.5183C50.2929 28.4655 50.9986 26.5847 52.0982 24.98C49.8073 23.3702 46.8726 22.6955 43.9354 23.4431C39.4728 24.545 36.3325 28.5124 36.3325 33.0842C36.3325 33.3056 36.3877 33.5791 36.3877 33.8552L39.0542 70.6429L56.2979 113.375L50.3479 31.2893Z" fill="#FFCC99"/>
<path d="M87.7007 11.1241C87.8122 8.80823 88.6687 6.71121 90.003 5.01015C88.385 4.03588 86.5086 3.44454 84.483 3.44454C78.6983 3.44454 74.0154 7.9616 73.74 13.6926L72.4529 42.1234L83.403 106.047L87.7007 11.1241" fill="#FFCC99"/>
<path d="M48.6401 175.574L17.8994 70.0177C17.6236 69.0825 17.5139 68.1994 17.5139 67.2642C17.5139 65.4225 18.0547 63.6355 19.0217 62.0985C16.1887 60.0015 12.3331 59.4805 8.89711 61.1816C5.53642 62.8331 3.55298 66.2483 3.55298 69.8301C3.55298 70.7679 3.66317 71.6484 3.93878 72.5862L34.68 178.14V220.617H100.79V218.049H48.6401L48.6401 175.574Z" fill="white"/>
<path d="M115.004 178.14L149.601 113.188C151.529 109.606 151.254 105.201 148.885 101.895C147.995 100.616 146.876 99.6754 145.67 98.9382C145.392 99.2925 145.071 99.5895 144.831 99.988L130.507 123.623L135.446 98.4381C133.642 99.3055 132.022 100.644 130.87 102.554L116.546 126.189L133.404 40.2452C134.153 36.3612 132.425 32.5813 129.313 30.3514C128.722 31.2554 128.255 32.2661 127.973 33.381L109.848 106.93L109.483 54.3278L95.8869 109.496L95.2257 14.0781C95.1892 10.2097 93.0933 6.87008 90.003 5.01011C88.6687 6.71117 87.8122 8.80819 87.7007 11.124L83.403 106.047L72.4529 42.1234L69.4428 108.616L56.2209 31.4325C55.7476 28.6973 54.1901 26.4518 52.0983 24.98C50.9987 26.5846 50.293 28.4654 50.293 30.5182C50.293 30.737 50.348 31.0131 50.348 31.2892L56.298 113.375L39.0543 70.6428L42.3376 115.941L22.2844 66.2482C21.5769 64.5081 20.4128 63.1274 19.0217 62.0985C18.0547 63.6354 17.5139 65.4224 17.5139 67.2642C17.5139 68.1993 17.6236 69.0824 17.8995 70.0176L48.6402 175.574V218.049H100.79V194.669L115.004 178.14Z" fill="#FFCC99"/>
<path d="M69.4427 108.616L56.2208 31.4326C55.2291 25.7016 49.5547 22.0103 43.9354 23.4431C39.4728 24.545 36.3325 28.5124 36.3325 33.0841C36.3325 33.3056 36.3877 33.5791 36.3877 33.8552L42.3375 115.941" stroke="#231F20" stroke-width="5.78716" stroke-miterlimit="10"/>
<path d="M95.8869 109.496L95.2258 14.0781C95.1708 8.18302 90.3779 3.44454 84.483 3.44454C78.6984 3.44454 74.0154 7.9616 73.7401 13.6926L69.4429 108.616" stroke="#231F20" stroke-width="5.78716" stroke-miterlimit="10"/>
<path d="M116.546 126.189L133.404 40.2452C134.286 35.6734 131.862 31.1017 127.62 29.2287C126.297 28.6765 124.975 28.4003 123.653 28.4003C119.246 28.4003 115.169 31.3752 114.012 35.9496L95.8867 109.496" stroke="#231F20" stroke-width="5.78716" stroke-miterlimit="10"/>
<path d="M42.3376 115.941L22.2844 66.2483C20.1358 60.9602 14.0206 58.6469 8.89711 61.1816C5.53642 62.8331 3.55298 66.2483 3.55298 69.8301C3.55298 70.7679 3.66317 71.6484 3.93878 72.5862L34.68 178.14V220.617H100.79V194.669L115.004 178.14L149.601 113.188C151.529 109.606 151.254 105.201 148.885 101.895C146.736 98.808 143.431 97.3206 140.126 97.3206C136.544 97.3206 132.964 99.0842 130.87 102.554L116.546 126.189L90.488 129.055L75.7784 157.371" stroke="#231F20" stroke-width="5.78716" stroke-miterlimit="10"/>
<rect x="12.5551" y="218.856" width="108.67" height="46.2973" rx="10.2883" fill="white" stroke="#231F20" stroke-width="5.14414"/>
<rect x="25.4155" y="221.428" width="93.2376" height="41.1532" rx="6.43018" fill="#66CC99"/>
</svg>
